<?xml version="1.0" encoding="utf-8"?>
<!-- Generator: Adobe Illustrator 26.3.1, SVG Export Plug-In . SVG Version: 6.00 Build 0)  -->
<svg version="1.1" id="Layer_1" xmlns="http://www.w3.org/2000/svg" xmlns:xlink="http://www.w3.org/1999/xlink" x="0px" y="0px"
	 viewBox="0 0 1815.05 2159.43" style="enable-background:new 0 0 1815.05 2159.43;" xml:space="preserve">
<style type="text/css">
	.st0{fill:url(#SVGID_1_);}
	.st1{fill:url(#SVGID_00000069380673024323553320000001731560817709006466_);}
</style>
<g>
	<linearGradient id="SVGID_1_" gradientUnits="userSpaceOnUse" x1="0.2273" y1="437.8319" x2="1720.6831" y2="2158.2878">
		<stop  offset="0" style="stop-color:#4A3315"/>
		<stop  offset="0.1896" style="stop-color:#6E532D"/>
		<stop  offset="0.5324" style="stop-color:#B69969"/>
		<stop  offset="0.7953" style="stop-color:#FDE9B2"/>
		<stop  offset="1" style="stop-color:#B89966"/>
	</linearGradient>
	<path class="st0" d="M1813.32,1807.87c-0.09,2.85-0.24,5.69-0.3,8.54C1813.09,1813.56,1813.23,1810.71,1813.32,1807.87
		c-0.02-4.39-0.03-8.79-0.05-13.18c0.1-3.5,0.29-6.99,0.29-10.49c-0.05-38.18-0.19-76.37-0.18-114.55
		c0.05-251.06,0.14-502.13,0.2-753.19c0-5.72-0.25-11.44-0.38-17.16c-0.32-22.88,0.54-45.77-1.71-68.64
		c-1.68-17.08-3.46-34.13-5.75-51.14c-3.79-28.07-9.1-55.83-15.66-83.37c-14.63-61.48-35.5-120.77-62.59-177.86
		c-2.03-4.28-3.58-8.86-6.83-12.49c-2.04-4.3-3.97-8.65-6.15-12.88c-18.45-35.91-39.2-70.44-62.22-103.6
		c-34.88-50.25-74.63-96.33-118.72-138.67c-2.47-2.37-4.5-5.41-8.05-6.48c-2.68-2.68-5.27-5.46-8.07-8.02
		c-22.94-20.93-46.9-40.64-71.88-59.08c-11.45-8.45-22.88-16.95-35.05-24.37c-0.36-0.96-0.99-1.55-2.08-1.5
		c-0.36-0.39-0.8-0.62-1.32-0.7c-0.43-1.07-1.25-1.58-2.38-1.63c-13.1-9.46-27.04-17.61-40.94-25.79
		c-20.71-12.2-41.82-23.69-63.73-33.64c-0.95-1.43-2.35-1.88-3.97-1.86c-19.53-10.11-39.91-18.27-60.33-26.34
		c-3.46-1.36-6.77-3.32-10.63-3.49c-20.9-8.48-42.4-15.2-64.04-21.47c-12.18-3.52-24.22-7.57-36.79-9.62
		c-0.94,0.31-1.82,0.38-2.65,0.26c0.83,0.12,1.71,0.05,2.64-0.26c-1.69-1.66-3.72-2.03-5.97-1.59l-0.83-0.3l-0.88,0.01
		c-0.83,0.26-1.62,0.35-2.37,0.28c0.75,0.07,1.54-0.03,2.37-0.28c-1.69-1.64-3.69-2.05-5.94-1.56
		c-19.02-4.75-38.26-8.46-57.62-11.43c-18.12-2.78-36.3-5.2-54.52-7.25c-12.25-1.38-24.59-1.84-36.9-2.72c0,0,0,0,0,0
		c0.09-0.6,0.18-1.21,0.26-1.81c-11.45,0-22.9,0-34.35,0c-12.72,0-25.45,0-38.17,0c-10.82,0-21.63,0-32.45,0
		c0.38,0.54,0.44,1.11,0.18,1.71c0,0-0.18,0.28-0.18,0.28c-8.37-0.28-16.76-0.83-24.94,1.7c-14.99,0.08-29.79,2.45-44.57,4.44
		c-20.76,2.8-41.4,6.42-61.95,10.6c-63.05,12.82-123.89,32.42-182.71,58.44c-72.74,32.18-140.08,73.23-202.01,123.16
		c-88.65,71.46-161.44,156.53-218.47,255.07c-27.12,46.85-49.74,95.83-67.91,146.85c-0.53,1.49-0.85,3.05-1.26,4.58
		c-0.93,0.51-1.37,1.23-1.07,2.31c-1.7,4.89-3.94,9.6-4.75,14.77c-0.95,0.54-1.3,1.33-1.04,2.39c-0.28,1.12-0.56,2.24-0.84,3.37
		c-0.93,0.53-1.31,1.31-1.04,2.37c0.47-0.26,0.8-0.59,0.97-0.98c-0.18,0.39-0.5,0.72-0.97,0.98
		c-10.37,31.72-18.49,64.03-25.13,96.72c-4.55,22.42-8.18,45-10.87,67.71c-2.02,17.04-3.87,34.1-4.72,51.25
		c-0.28,5.71-0.94,11.4-1.5,17.09c-0.15,1.57-0.5,3.15-2.17,3.95c0,175.02,0,350.04,0,525.06c0,177.57,0,355.13,0,532.7
		c0,77.01,0,154.02,0,231.03c0.67,1.9,0.67,1.91,1.91,1.91c89.07,0,178.13,0,267.2,0c515.31,0,1030.63,0,1545.94,0
		c0-117.1,0-234.21,0-351.31C1814.49,1807.91,1813.91,1807.83,1813.32,1807.87z M1185.15,105.45c-0.14-0.3-0.32-0.5-0.55-0.59
		C1184.82,104.95,1185.01,105.15,1185.15,105.45z M1184.49,104.83c-0.05-0.01-0.09-0.03-0.14-0.04
		C1184.4,104.8,1184.44,104.82,1184.49,104.83z M1179.2,103.12c-0.11-0.14-0.24-0.23-0.38-0.27
		C1178.96,102.89,1179.09,102.98,1179.2,103.12z M939.3,1.37c-2.5-0.24-5-0.52-7.5-0.82C934.3,0.86,936.8,1.14,939.3,1.37z
		 M948.82,2.02c-1.42-0.05-2.84-0.13-4.26-0.22C945.98,1.89,947.4,1.97,948.82,2.02z M944.56,1.8c-0.44-0.03-0.88-0.06-1.32-0.09
		C943.68,1.74,944.12,1.77,944.56,1.8z M942.43,1.64c-0.01,0-0.02,0-0.03,0C942.41,1.64,942.42,1.64,942.43,1.64z M849.3,3.48
		c-0.88,0.11-1.77,0.19-2.65,0.26C847.53,3.67,848.42,3.58,849.3,3.48z M839.85,3.96c-1.04-0.01-2.09-0.03-3.14-0.06
		C837.76,3.93,838.8,3.95,839.85,3.96z M845.78,3.8c-0.91,0.06-1.82,0.1-2.74,0.13C843.95,3.9,844.87,3.86,845.78,3.8z
		 M61.72,892.53c0.6-14.94,0.88-29.9,1.95-44.8c1.45-20.29,3.68-40.51,6.53-60.68c5.13-36.24,12.61-71.96,22.48-107.18
		c31.28-111.65,83.33-212.64,155.96-302.95c70.82-88.06,155.88-159.26,254.93-213.59c64.87-35.58,133.28-62.17,205.26-79.53
		c24.09-5.81,48.32-10.84,72.81-14.47c20.73-3.07,41.56-5.55,62.51-6.95c26.66-1.78,53.33-3.04,80.05-2.38
		c21.3,0.53,42.6,1.29,63.8,3.37c42.41,4.15,84.36,11.04,125.71,21.46c20.01,5.04,39.86,10.61,59.46,17.08
		c1.49,0.49,3.06,0.76,4.6,1.13h0c0.35,0.81,0.86,1.17,1.71,0.63c1.32,0.43,2.64,0.87,3.97,1.3c0,0,0,0,0,0
		c0.34,0.86,0.88,1.28,1.81,0.82c1.87,0.68,3.74,1.37,5.61,2.05c0,0,0,0,0,0c2,0.92,3.94,1.99,6,2.73
		c94.67,34.25,180.35,84.07,257.36,148.86c10.44,8.78,20.61,17.88,30.91,26.82c0.96,1.23,1.78,2.62,2.91,3.67
		c20.08,18.58,38.91,38.36,56.98,58.89c48.35,54.91,88.93,115.06,121.71,180.48c2.84,5.67,5.83,11.26,8.75,16.89
		c0.59,1.79,1.04,3.65,1.79,5.37c5.04,11.67,10.38,23.22,15.2,34.98c21.15,51.62,37.21,104.78,47.7,159.58
		c3.4,17.78,6.46,35.62,8.53,53.63c1.45,12.62,3.01,25.22,3.95,37.9c1.54,20.91,3.12,41.81,3.07,62.8c0,0.8,0.25,2.05-1.4,1.96
		c-2.43-2.1-3.25-5.27-4.72-8.02c-5.84-10.93-11.37-22.04-17.43-32.84c-25.48-45.43-56.55-86.76-92.28-124.59
		c-23.18-24.54-48.42-46.85-75.2-67.39c-3.48-2.67-6.59-6.03-11.05-7.28c0,0,0,0,0,0c-1.45-1.21-2.83-2.5-4.36-3.6
		c-17.17-12.42-35-23.83-53.36-34.4c-15.88-9.14-32.02-17.79-48.87-25.04c-0.53-0.86-1.28-1.34-2.33-1.28
		c-15.4-7.4-31.24-13.72-47.29-19.53c-6.23-2.25-12.31-4.98-18.88-6.2c-1.19-1.24-2.68-1.58-4.33-1.45
		c-35.51-12.1-72.02-19.85-109.17-24.68c-6.23-0.81-12.43-2.79-18.86-1.67c-10.37-1.63-20.84-1.83-31.28-2.54
		c-36.86-2.5-73.53-0.53-110.14,3.82c-37.24,4.42-73.75,12.25-109.54,23.42c-25.11,7.84-49.83,16.75-73.53,28.29
		c-1.65-0.07-3.04,0.41-4.01,1.83c-0.57,0.03-1.09,0.21-1.56,0.52c-1.1-0.11-1.87,0.37-2.38,1.33c-3.3,1.39-6.57,2.27-9.89-0.05
		c-1.02-0.71-2.27-1.11-3.42-1.64c-30.78-14.36-62.49-26.22-95.19-35.36c-8.79-2.46-17.46-5.63-26.7-6.27
		c-11.87-3.54-24.1-5.46-36.25-7.66c-18.41-3.34-36.98-5.78-55.64-7.18c-27.54-2.06-55.09-3.17-82.73-1.41
		c-17.74,1.13-35.45,2.37-53.05,4.75c-22.92,3.1-45.73,6.9-68.05,13.19c-2.25-0.31-4.38-0.18-6.07,1.61
		c-9.66,1.6-18.86,4.86-28.19,7.65c-13.57,4.06-26.98,8.56-40.1,13.9c-1.65-0.34-2.77,0.57-3.82,1.63l-0.06,0.02
		c-1.69-0.24-3.08,0.22-4.06,1.69c-0.59-0.03-1.12,0.12-1.61,0.44c-1.66-0.33-2.77,0.58-3.81,1.67l-0.06,0.02c0,0,0,0,0,0
		c-1.68-0.23-3.05,0.27-4.02,1.72c-0.59-0.02-1.14,0.13-1.63,0.46c-1.16-0.24-1.96,0.2-2.45,1.27c-3.63,1.53-7.26,3.05-10.89,4.58
		c-0.28,0.63-0.67,1.05-1.2,1.22c0.53-0.18,0.93-0.59,1.2-1.22c-1.12-0.22-1.84,0.31-2.3,1.28c-0.57-0.01-1.08,0.15-1.54,0.49
		c-1.15-0.21-1.96,0.22-2.44,1.29c-15,6.17-29.28,13.79-43.35,21.77C212.64,685.54,126.3,776.32,67.32,893.15
		c-1,1.98-2.01,3.95-3,5.94c-0.37,0.75-0.83,0.82-1.58,0.53c-0.63-0.25-0.94-0.57-0.94-1.37C61.8,896.34,61.65,894.43,61.72,892.53z
		 M1728.09,988.25c-0.07,0.02-0.14,0.05-0.21,0.07C1727.95,988.3,1728.02,988.27,1728.09,988.25z M1052.83,614.67
		c-0.17-0.03-0.33-0.04-0.49-0.05C1052.49,614.63,1052.66,614.65,1052.83,614.67z M1052.32,614.63c-0.48-0.02-0.93,0.06-1.36,0.24
		C1051.38,614.68,1051.84,614.61,1052.32,614.63z M1047.23,775.6c0.75,2.6,2.92,4.11,4.65,5.92c12.94,13.59,25.04,27.91,36.48,42.78
		c44.91,58.33,77.54,122.85,97.73,193.69c4.27,14.99,7.46,30.21,11.09,45.35c1.17,8.15,2.38,16.3,3.5,24.46
		c1.17,8.5,2.53,16.98,3.31,25.51c1.07,11.71,1.83,23.45,2.42,35.19c2.74,54.34,1.01,108.71,1.36,163.07
		c0.33,51.19,0.14,102.39,0.18,153.58c0,3.44,0,6.88,0,10.32c-3.67,0.62-4.14-2.17-5.28-3.77c-12.58-17.64-26.32-34.28-41.78-49.48
		c-40.14-39.44-86.86-68.06-140.36-85.57c-10.57-3.46-21.3-6.36-32.16-8.76c-1.83-0.4-3.75-0.39-5.63-0.57
		c0.66,4.4-1.15,7.71-3.44,10.8c-0.21,0.28-0.42,0.56-0.63,0.84c-0.21,0.28-0.43,0.56-0.65,0.83c0.22-0.28,0.43-0.55,0.65-0.83
		c0.21-0.28,0.43-0.56,0.63-0.84c2.29-3.09,4.1-6.39,3.44-10.8c-2.19-0.32-4.38-0.64-6.57-0.96c0,0,0,0-0.01,0
		c-0.79-0.87-1.79-1.09-2.91-0.91c-3.11-0.54-6.22-1.08-9.33-1.63c-0.44,0.37-0.85,0.49-1.24,0.39c0.39,0.1,0.8-0.02,1.24-0.39
		c-0.71-0.08-1.43-0.16-2.14-0.24c-28.48-4.26-57.02-5.32-85.67-1.95c-0.32,0.37-0.65,0.58-1,0.62c0.35-0.04,0.68-0.25,1-0.62
		c-0.7,0.06-1.4,0.12-2.09,0.17c-28.07,2.97-55.45,8.95-81.92,18.86c-0.84,0.4-1.67,0.8-2.51,1.2c-0.49,0.01-0.95,0.15-1.37,0.41
		c0,0,0,0,0,0c-1.64-0.13-3.04,0.32-4.11,1.63c-1.82,0.7-3.63,1.4-5.45,2.1c0,0,0,0,0,0c-1.64-0.09-3.05,0.38-4.1,1.71
		c-21.2,8.04-40.8,19.14-59.55,31.72c-38.97,26.15-71.65,58.69-97.89,97.65c-1.58,2.34-3.24,4.63-4.79,6.83
		c-2.61-0.39-2.24-2.21-2.28-3.67c-0.1-2.86-0.05-5.72-0.05-8.58c0.05-62.6,0.11-125.2,0.14-187.81c0-4.12-0.24-8.25-0.37-12.37
		c-0.25-0.02-0.49-0.03-0.74-0.02c0.24,0,0.49,0,0.74,0.02c-0.01-29.24-0.03-58.49-0.04-87.73c0-11.76-0.05-23.51,0.44-35.27
		c2.56-62.16,14.85-122.33,37.59-180.17c50.09-127.43,134.89-225.13,253.27-293.75c1.65-0.96,3.38-1.77,5.01-2.76
		c1.82-1.1,3.51-1.08,5.33,0.03c2.17,1.32,4.43,2.48,6.64,3.74c44.73,25.44,85.21,56.48,121.69,92.76
		C1042.16,770.8,1044.72,773.18,1047.23,775.6z M787.58,1342.9c-0.18,0.15-0.36,0.28-0.54,0.39
		C787.22,1343.18,787.4,1343.05,787.58,1342.9z M786.89,1343.39c-0.27,0.15-0.55,0.27-0.85,0.36
		C786.33,1343.66,786.62,1343.55,786.89,1343.39z M480.58,560.94c-0.29,0.12-0.59,0.22-0.9,0.29c-0.26,0.06-0.52,0.1-0.78,0.12
		c0.27-0.02,0.53-0.06,0.78-0.12C479.98,561.16,480.28,561.06,480.58,560.94z M478.08,561.35c-0.28-0.02-0.56-0.07-0.85-0.13
		C477.52,561.28,477.81,561.32,478.08,561.35z M401.49,586.07c-0.2,0.01-0.4,0-0.61-0.03C401.09,586.07,401.3,586.08,401.49,586.07z
		 M393.69,589.33c-0.08,0.05-0.17,0.1-0.25,0.15C393.53,589.44,393.61,589.39,393.69,589.33z M392.97,589.7
		c-0.14,0.05-0.28,0.1-0.43,0.13C392.69,589.8,392.83,589.75,392.97,589.7z M349.78,675.54c0,0-0.01,0.02-0.03,0.05L349.78,675.54z
		 M56.13,1346.6c-0.13,0.33-0.24,0.67-0.34,1.02C55.9,1347.28,56.01,1346.94,56.13,1346.6z M53.08,608.18
		c-0.13,0.29-0.36,0.54-0.68,0.75C52.72,608.73,52.95,608.48,53.08,608.18z M47.33,624.98c-0.01,0.05-0.03,0.1-0.05,0.16
		C47.3,625.08,47.32,625.03,47.33,624.98z M47.23,625.29c-0.13,0.3-0.35,0.56-0.65,0.79C46.88,625.85,47.1,625.58,47.23,625.29z
		 M245.01,2098.33c-4.12,0-8.23,0.32-12.35,0.49c-1.19,0-2.38-0.01-3.57-0.01c-3.92,1.57-7.85,2.07-11.77,1.5
		c3.92,0.57,7.84,0.07,11.77-1.5c-5.76-0.77-11.53-0.76-17.29-0.01c-1.87,0-3.75-0.01-5.62-0.01c-2.41,1.37-4.82,1.89-7.22,1.54
		c2.41,0.35,4.82-0.17,7.22-1.54c-3.85-0.72-7.7-0.72-11.56-0.01c-1.88,0-3.75-0.01-5.63-0.01c-1.43,1.05-3.03,1.36-4.68,1.46
		c1.65-0.09,3.25-0.41,4.68-1.46c-3.13-0.16-6.27-0.45-9.4-0.46c-16.98-0.06-33.97-0.07-50.95-0.04c-3.45,0.01-6.9,0.27-10.35,0.42
		c-14.27-0.07-28.54-0.15-42.8-0.22c-2.54-0.01-5.08,0.05-7.61-0.02c-6.03-0.17-6.28-0.42-6.42-6.62c-0.07-3.17-0.02-6.34-0.02-9.52
		c0.05-66.62,0.12-133.23,0.14-199.85c0-3.79,0.49-7.62-0.58-11.36c-0.43,0.18-0.97,0.29-1.45,0.44c0.48-0.15,1.02-0.27,1.45-0.44
		c0.09-3.49,0.26-6.98,0.26-10.47c0.16-169.02,0.3-338.03,0.41-507.05c0-3.78,0.58-7.63-0.63-11.35c-2.31,0.38-3.65,1.71-4.5,3.42
		c0.85-1.71,2.19-3.04,4.5-3.42c0.1-3.18,0.27-6.35,0.27-9.53c0.05-55.99-0.06-111.98,0.18-167.97c0.13-28.67,2.91-57.17,7.65-85.44
		c8.83-52.65,24.56-103.18,47.67-151.31c37.46-78.04,89.65-144.54,156.82-199.21c22.48-18.3,46.13-34.87,71.15-49.5
		c1.63-0.95,3.14-2.12,4.71-3.18c0,0,0.56,0.19,0.56,0.19l0.29-0.54c18.47-9.88,36.94-19.75,56.2-28.04
		c38.61-16.62,78.47-29.09,119.79-37.01c42.95-8.24,86.23-11.43,129.92-9.87c28.96,1.04,57.65,4.23,86.09,9.71
		c0.62,0.12,1.27,0.07,1.9,0.1l0,0c3.06,0.81,6.09,1.75,9.18,2.42c28.27,6.12,56.01,14.02,83.02,24.44c1.78,0.68,3.7,1.03,4.8,2.82
		c-0.14,0.27-0.21,0.63-0.43,0.79c-2.03,1.5-4.05,3.04-6.15,4.44c-22.78,15.17-44.6,31.6-65.25,49.57
		c-85.04,73.98-146.64,163.97-184.13,270.35c-22.7,64.41-34.35,130.86-35.04,199.1c-0.52,51.51,0.02,103.03,0.11,154.55
		c0.01,3.17,0.21,6.35,0.32,9.52c2.66,0.33,4.72-0.61,6.36-2.12c-1.63,1.51-3.7,2.45-6.36,2.12c-1.24,3.72-0.71,7.56-0.7,11.35
		c0.09,146.12,0.22,292.25,0.36,438.37c0,3.49,0.27,6.97,0.41,10.46c-1.39,4.35-0.8,8.83-0.8,13.26
		c0.02,94.07,0.09,188.15,0.13,282.22c0,3.49-0.03,6.99-0.21,10.48c-0.12,2.19-1.48,3.5-3.68,3.58c-3.49,0.14-6.99,0.17-10.48,0.17
		C438.8,2098.43,341.9,2098.36,245.01,2098.33z M1194.16,2098.42c-150.98-0.03-301.95-0.07-452.93-0.09c-4.76,0-9.51,0.3-14.27,0.47
		c-11.12-0.08-22.24-0.21-33.37-0.23c-21.61-0.04-43.23-0.03-64.84-0.04c-2.22,0-4.45,0.05-6.67-0.05
		c-4.92-0.23-5.66-0.89-5.86-5.48c-0.14-3.17-0.07-6.36-0.07-9.54c0.06-114.47,0.13-228.94,0.17-343.41c0-4.12,0.46-8.27-0.64-12.34
		c0,0,0,0,0,0c0.11-18.74,0.37-37.48,0.28-56.22c-0.14-30.48,5.01-60.09,14.58-88.92c17.43-52.51,47.41-96.69,89.32-132.71
		c24.77-21.29,52.47-37.86,82.77-50.06c32.75-13.19,66.92-19.53,102.07-21c7.92-0.33,15.86-0.28,23.79,0.64
		c4.72,0.55,9.5,0.5,14.26,0.72c3.1,0.66,6.18,1.41,9.29,1.96c8.11,1.44,16.31,2.43,24.33,4.23
		c52.24,11.76,98.02,35.97,137.18,72.43c29.13,27.12,52.03,58.87,68.15,95.37c3.33,7.54,6.37,15.21,9.55,22.82
		c2.63,9.8,5.43,19.56,7.87,29.41c4.13,16.68,6.11,33.63,7.48,50.79c2.08,26.06,1.17,52.1,1.22,78.14
		c0.22,116.38,0.15,232.75,0.18,349.13C1207.98,2099.6,1209.03,2098.43,1194.16,2098.42z M1238.94,1021.94
		c0.22-0.24,0.44-0.48,0.67-0.71C1239.39,1021.46,1239.16,1021.7,1238.94,1021.94z M1267.11,2085.5
		c0.04-189.28,0.09-378.55,0.1-567.83c0-4.44-0.36-8.88-0.55-13.32c0,0,0,0,0,0c0.1-3.49,0.28-6.98,0.28-10.47
		c0.07-103.87,0.12-207.75,0.2-311.62c0.02-23.19-1.25-46.31-3.28-69.41c-2.04-23.12-5.61-45.99-10.24-68.7
		c-1.83-8.96-3.23-18.09-6.97-26.57c0,0,0,0,0,0c-1.75-11.02-5.28-21.58-8.6-32.16c-29.21-93.41-77.64-175.58-144.61-246.86
		c-2.35-2.51-4.34-5.51-7.68-6.96c-15.94-17.32-33.58-32.8-51.68-47.77c-17.13-14.16-35.03-27.3-53.59-39.54
		c-1.57-1.04-3.1-2.14-4.53-3.13c0.26-2.78,2.38-2.89,4-3.53c22.74-8.96,46.16-15.78,69.81-21.81c0,0,0,0,0,0
		c1.4,0.41,2.52-0.16,3.55-1.02c10.9-2.07,21.79-4.22,32.7-6.18c24.4-4.39,49-7.03,73.79-7.84c4.12-0.14,8.23-0.56,12.34-0.86
		c4.97-1.14,9.96-1.18,14.94-0.48c-4.99-0.69-9.97-0.66-14.95,0.49c5.71,1.28,11.4,1.17,17.08-0.15c8.79,0.38,17.57,0.75,26.36,1.13
		v0c12.6,1.36,25.2,2.69,37.79,4.09c26.52,2.94,52.59,8.22,78.36,15.1c29.78,7.95,58.64,18.49,86.85,30.85l0.45,0.51
		c0,0,0.64-0.15,0.65-0.14c2.54,1.28,5.07,2.6,7.63,3.84c23.73,11.46,46.84,24,68.82,38.57c7.66,5.08,15.27,10.24,22.91,15.36
		c7.62,6.18,15.2,12.41,22.88,18.52c44.79,35.66,82.88,77.53,115.12,124.75c27.52,40.3,49.28,83.57,65.78,129.5
		c0.86,2.38,1.85,4.72,2.78,7.08c0,0,0,0,0,0c0.08,3.58,1.62,6.78,2.71,10.08c8.15,24.82,13.62,50.27,18.44,75.91
		c2.94,15.64,4.51,31.43,6.75,47.15c0.09,0.63,0.16,1.27,0.17,1.9c0.2,18.12,2.22,36.15,2.2,54.31
		c-0.17,218.61-0.13,437.21-0.11,655.82c0,5.4,0.29,10.8,0.44,16.2c-0.1,10.45-0.26,20.9-0.28,31.34
		c-0.11,49.4-0.19,98.8-0.24,148.2c0,3.78,0.33,7.57,0.51,11.36c0,0,0,0,0,0c-0.09,3.47-0.23,6.93-0.25,10.4
		c-0.09,15.46-0.15,30.92-0.22,46.38c-4.12,0.1-8.25,0.29-12.37,0.3c-65.72,0.13-131.44,0.23-197.17,0.36
		c-3.81,0.01-7.61,0.17-11.42,0.27c-4.44-0.18-8.88-0.51-13.32-0.51c-80.45,0-160.9,0.04-241.35,0.07
		C1266.38,2098.44,1267.11,2099.2,1267.11,2085.5z"/>
	
		<linearGradient id="SVGID_00000098199045220304911360000003557333853796476036_" gradientUnits="userSpaceOnUse" x1="790.4913" y1="1340.905" x2="791.1784" y2="1341.5922">
		<stop  offset="0" style="stop-color:#4A3315"/>
		<stop  offset="0.1896" style="stop-color:#6E532D"/>
		<stop  offset="0.5324" style="stop-color:#B69969"/>
		<stop  offset="0.7953" style="stop-color:#FDE9B2"/>
		<stop  offset="1" style="stop-color:#B89966"/>
	</linearGradient>
	<path style="fill:url(#SVGID_00000098199045220304911360000003557333853796476036_);" d="M789.6,1341.87
		c0.84-0.4,1.67-0.8,2.51-1.2C791.05,1340.6,790.21,1341,789.6,1341.87z"/>
</g>
</svg>
